<svg width="14" height="14" viewBox="0 0 14 14" fill="none" xmlns="http://www.w3.org/2000/svg">
<path d="M13.6313 5.11937C13.5453 4.86737 13.318 4.68937 13.0527 4.66871L9.25201 4.36671L7.60734 0.726041C7.50001 0.486707 7.26201 0.333374 7.00001 0.333374C6.73801 0.333374 6.50001 0.486707 6.39267 0.725374L4.74801 4.36671L0.94734 4.66871C0.686673 4.68937 0.462006 4.86071 0.37334 5.10671C0.284673 5.35271 0.34734 5.62804 0.534673 5.81071L3.34334 8.54871L2.35001 12.85C2.28867 13.116 2.39601 13.3927 2.62067 13.548C2.73534 13.6267 2.86734 13.6667 3.00001 13.6667C3.12867 13.6667 3.25801 13.6294 3.37001 13.5547L7.00001 11.1347L10.63 13.5547C10.862 13.7094 11.1667 13.7034 11.3933 13.5387C11.6187 13.374 11.718 13.0854 11.6413 12.8174L10.422 8.55071L13.446 5.82937C13.644 5.65071 13.7167 5.37204 13.6313 5.11937Z" fill="#FFBA08"/>
</svg>
